<?xml version="1.0" encoding="iso-8859-1"?>
<!--Generator: Adobe Illustrator 19.0.0, SVG Export Plug-In . SVG Version: 6.00 Build 0)-->
<!--License: CC0. Made by SVG Repo: https://www.svgrepo.com/svg/186588/archives-files-and-folders-->
<svg version="1.1" id="Layer_1" xmlns="http://www.w3.org/2000/svg" xmlns:xlink="http://www.w3.org/1999/xlink" x="0px" y="0px" viewBox="0 0 3050 512" style="enable-background:new 0 0 512 512;" xml:space="preserve">
  <path style="fill:#9A55FF;" d="M455.335,0H256.434c-0.146,0-0.289,0.019-0.434,0.022C255.855,0.019,255.713,0,255.566,0H56.665
	c-12.258,0-22.63,9.925-22.63,22.183v467.634c0,12.258,10.372,22.183,22.63,22.183h198.902c0.146,0,0.289-0.019,0.434-0.022
	c0.145,0.003,0.287,0.022,0.434,0.022h198.902c12.258,0,22.63-9.925,22.63-22.183V22.183C477.965,9.925,467.594,0,455.335,0z"/>
  <path style="fill:#DA8CFF;" d="M256.216,0c-0.146,0-0.179,0.019-0.326,0.022C255.745,0.019,255.713,0,255.566,0H56.665
	c-12.258,0-22.63,9.925-22.63,22.183v467.634c0,12.258,10.372,22.183,22.63,22.183h198.902c0.146,0,0.289-0.019,0.434-0.022
	c0.145,0.003,0.07,0.022,0.216,0.022H256V0H256.216z"/>
  <g>
    <circle style="fill:#E7E6E6;" cx="156.855" cy="390.644" r="22.197"/>
    <path style="fill:#E7E6E6;" d="M156.855,325.549c-12.258,0-22.197-9.938-22.197-22.197V125.78c0-12.258,9.938-22.197,22.197-22.197
		c12.258,0,22.197,9.938,22.197,22.197v177.572C179.052,315.611,169.114,325.549,156.855,325.549z"/>
    <circle style="fill:#E7E6E6;" cx="356.624" cy="390.644" r="22.197"/>
    <path style="fill:#E7E6E6;" d="M356.624,325.549c-12.258,0-22.197-9.938-22.197-22.197V125.78c0-12.258,9.938-22.197,22.197-22.197
		s22.197,9.938,22.197,22.197v177.572C378.821,315.611,368.883,325.549,356.624,325.549z"/>
  </g>
  <text x="650" y="500" font-size="620" fill="#9A55FF" font-family="'Poppins', Sans-serif" font-weight="bold" letter-spacing="3">Sintaks</text>
</svg>
